control3min_grf.mot
version=1
nRows=15
nColumns 19
inDegrees=yes
endheader
time	1_ground_force_vx	1_ground_force_vy	1_ground_force_vz	1_ground_force_px	1_ground_force_py	1_ground_force_pz	1_ground_torque_x	1_ground_torque_y	1_ground_torque_z	2_ground_force_vx	2_ground_force_vy	2_ground_force_vz	2_ground_force_px	2_ground_force_py	2_ground_force_pz	2_ground_torque_x	2_ground_torque_y	2_ground_torque_z
            0.005000	            0.320840	            5.947060	            0.437415	           -0.194867	            0.006119	           -0.379529	            0.523358	           -0.157438	            0.143084	            0.457522	            2.772118	           -2.289820	           -0.243103	            0.005504	           -0.669181	           -0.168818	           -0.094398	           -0.207618
            0.005500	            0.183440	            6.487437	            0.531787	           -0.194867	            0.006119	           -0.379529	            0.537868	           -0.212955	            0.136926	            0.461530	            1.667060	           -2.246835	           -0.243103	            0.005504	           -0.669181	           -0.262865	           -0.057061	           -0.169742
            0.006000	            0.229414	            5.766383	            0.528581	           -0.194867	            0.006119	           -0.379529	            0.463065	           -0.231113	            0.063822	            0.418668	            0.562001	           -2.250757	           -0.243103	            0.005504	           -0.669181	           -0.169159	            0.000129	           -0.207280
            0.006500	            0.320498	            5.947650	            0.299847	           -0.194867	            0.006119	           -0.379529	            0.529110	           -0.295851	            0.086082	            0.418586	            0.562671	           -2.438469	           -0.243103	            0.005504	           -0.669181	           -0.131546	           -0.009255	           -0.188480
            0.007000	            0.321100	            5.766401	            0.528353	           -0.194867	            0.006119	           -0.379529	            0.463046	           -0.332668	            0.048498	            0.504413	            2.771952	           -2.195984	           -0.243103	            0.005504	           -0.669181	           -0.150254	           -0.037479	           -0.245124
            0.007500	            0.137402	            6.307556	            0.439416	           -0.194867	            0.006119	           -0.379529	            0.485589	           -0.296180	            0.134751	            0.554504	            1.852049	           -2.387002	           -0.243103	            0.005504	           -0.669181	           -0.075104	           -0.037275	           -0.226305
            0.008000	            0.045473	            5.767331	            0.299757	           -0.194867	            0.006119	           -0.379529	            0.491645	           -0.259011	            0.074611	            0.600024	            2.220515	           -2.385708	           -0.243103	            0.005504	           -0.669181	           -0.131348	           -0.075088	           -0.282967
            0.008500	            0.091283	            5.947605	            0.300416	           -0.194867	            0.006119	           -0.379529	            0.491524	           -0.203530	            0.076797	            0.740574	            2.221022	           -2.385767	           -0.243103	            0.005504	           -0.669181	           -0.187764	           -0.056453	           -0.264025
            0.009000	            0.229187	            5.766776	            0.436869	           -0.194867	            0.006119	           -0.379529	            0.542100	           -0.175721	            0.082662	            0.272843	            2.034346	           -2.151585	           -0.243103	            0.005504	           -0.669181	           -0.187816	           -0.037682	           -0.226257
            0.009500	            0.183865	            5.405450	            0.618861	           -0.194867	            0.006119	           -0.379529	            0.516029	           -0.259415	            0.193214	            0.693786	            2.220351	           -2.244963	           -0.243103	            0.005504	           -0.669181	           -0.281803	           -0.019183	           -0.207300
            0.010000	            0.183670	            5.225577	            0.526376	           -0.194867	            0.006119	           -0.379529	            0.557328	           -0.305144	            0.080133	            0.365775	            2.219669	           -2.385608	           -0.243103	            0.005504	           -0.669181	           -0.319289	           -0.038359	           -0.169651
            0.010500	            0.137662	            6.126897	            0.530354	           -0.194867	            0.006119	           -0.379529	            0.519255	           -0.351470	            0.096841	            0.785348	            2.774306	           -2.571528	           -0.243103	            0.005504	           -0.669181	           -0.187774	           -0.047202	           -0.207441
            0.011000	            0.320938	            5.406263	            0.435096	           -0.194867	            0.006119	           -0.379529	            0.448551	           -0.305186	            0.105059	            0.456069	            3.141418	           -2.570075	           -0.243103	            0.005504	           -0.669181	           -0.206422	           -0.094265	           -0.283002
            0.011500	            0.321166	            5.405870	            0.526807	           -0.194867	            0.006119	           -0.379529	            0.519801	           -0.185166	            0.142993	            0.269561	            2.954752	           -2.054443	           -0.243103	            0.005504	           -0.669181	           -0.206499	           -0.066108	           -0.226351
            0.012000	            0.138201	            5.044713	            0.663284	           -0.194867	            0.006119	           -0.379529	            0.570467	           -0.203722	            0.134982	            0.554524	            1.851882	           -2.340074	           -0.243103	            0.005504	           -0.669181	           -0.225225	           -0.085014	           -0.245260
